<svg width="64" height="77" viewBox="0 0 64 77" fill="none" xmlns="http://www.w3.org/2000/svg">
<path d="M12.0512 17.0247C11.523 17.0247 11.0694 17.0551 11.0694 17.8502C11.0694 18.2386 11.0522 18.621 11.0752 19.0094C11.0809 19.2219 11.1096 19.4586 11.2072 19.6407C11.3106 19.8288 11.4311 19.8288 11.5976 19.8531C11.8158 19.8895 11.9995 19.8956 12.2234 19.8956C12.7344 19.8956 13.2569 19.5496 13.4406 19.0034C13.5324 18.712 13.5382 18.3721 13.4004 17.9898C13.1593 17.3707 12.5679 17.0247 12.0512 17.0247Z" fill="#78A3AD"/>
<path d="M25.8252 16.0539L25.808 15.975C25.7046 15.5259 25.607 15.0767 25.5094 14.6276C25.4348 14.4759 25.3831 14.2574 25.1937 14.312C25.0616 14.3484 25.0099 14.5244 24.9755 14.6215L24.9353 14.6701C24.8434 15.2892 24.7401 15.9082 24.631 16.5273L24.6195 16.5941L24.5851 16.7458C24.5679 16.9279 24.5449 17.1282 24.6023 17.3042L24.7401 17.4863L24.964 17.5652L25.119 17.6259H25.653C26.3017 17.4256 25.9056 16.588 25.8424 16.1085L25.8252 16.0539Z" fill="#78A3AD"/>
<path d="M11.609 13.4805C12.1199 13.5897 12.7859 13.4016 13.0845 12.7825C13.3027 12.3273 13.2625 11.7871 13.0041 11.3804L12.9122 11.2469C12.7056 10.998 12.407 10.9313 12.1372 10.9191C11.8673 10.9009 11.5573 10.9191 11.3047 11.0587L11.1784 11.2105C11.1095 11.3501 11.0521 11.5382 11.0234 11.7385C10.9487 12.218 11.0061 12.7946 11.1841 13.1466C11.2817 13.3348 11.431 13.444 11.609 13.4805Z" fill="#78A3AD"/>
<path d="M58.3086 0H5.30496C2.38838 0 0 2.5249 0 5.6082V76.002H22.9192V64.0937C22.9192 62.376 24.2455 60.9679 25.8703 60.9679H37.7261C39.3508 60.9679 40.6828 62.376 40.6828 64.0937V76.002H63.6021V5.6082C63.6136 2.5249 61.2252 0 58.3086 0ZM15.3809 53.9334H7.9115V44.4043H15.3809V53.9334ZM15.3809 39.3545H7.9115V29.8254H15.3809V39.3545ZM17.5282 19.9564C17.0516 21.1461 16.2077 22.1718 15.1283 22.6634C13.8537 23.2461 12.4758 23.3129 11.1209 23.2765C10.3516 23.2582 9.30664 23.3189 8.64639 22.8212C7.37756 21.8562 7.60722 20.5088 7.58999 19.0278C7.57277 17.7047 7.57277 16.3815 7.53258 15.0644C7.49813 13.8445 7.51536 12.6549 7.53832 11.4592C7.55554 10.5791 7.33163 9.41376 7.90576 8.68542C8.86456 7.45939 10.6903 7.42904 12.0395 7.53829C14.2384 7.72038 16.9426 8.86751 16.6498 11.9569C16.5981 12.4121 16.466 12.8916 16.2479 13.2679C16.0182 13.6685 15.5417 14.148 15.7656 14.7003C16.024 15.3254 16.8048 15.6653 17.1607 16.2723C17.5913 17.0127 17.7923 17.735 17.8038 18.4148C17.8152 18.9489 17.7176 19.477 17.5282 19.9564ZM28.7581 53.9334H21.2887V44.4043H28.7581V53.9334ZM28.7581 39.3545H21.2887V29.8254H28.7581V39.3545ZM29.3495 23.2158C28.7122 23.3857 27.4491 23.2461 27.1563 22.5178C26.7487 21.4981 26.9382 20.3145 25.566 20.1264C24.923 20.0354 23.9929 20.3328 23.723 21.0065C23.4474 21.7105 23.6656 22.5785 22.9537 23.058C22.4714 23.3857 21.794 23.4343 21.237 23.3371C19.9854 23.1247 19.6869 22.1475 19.8706 20.9336C19.9625 20.3449 20.0831 19.7562 20.2266 19.1735C20.5022 17.9899 20.8466 16.8185 21.0993 15.635C21.3634 14.3968 21.5586 13.1465 21.8801 11.9144C22.4427 9.7233 23.4704 6.83423 26.2033 7.80535C27.3745 8.21807 27.7017 9.58978 28.0807 10.6823C28.6318 12.2603 28.85 13.9962 29.1945 15.635C29.4471 16.8185 29.7858 17.9899 30.0672 19.1735C30.2279 19.8775 30.5437 20.9336 30.4518 21.8016C30.3829 22.4692 30.0901 23.0094 29.3495 23.2158ZM42.1354 53.9334H34.6659V44.4043H42.1354V53.9334ZM42.1354 39.3545H34.6659V29.8254H42.1354V39.3545ZM44.0415 18.8154C44.03 19.2827 44.007 19.8351 43.9324 20.3874C43.8233 21.2432 43.5133 22.6938 42.5085 22.797C42.1813 22.8334 41.8253 22.803 41.5383 22.712C39.9364 22.2143 39.6609 20.3874 38.7078 19.1371C38.4609 18.8154 38.2887 18.4755 38.0992 18.1295C37.8811 17.735 37.4447 16.9581 36.951 16.8914C36.3424 16.8064 36.4802 17.7047 36.4859 18.1477C36.5032 19.483 36.9223 22.3296 35.464 23.0033C33.2995 24.0048 32.7598 20.8972 32.7254 19.477C32.6795 17.7047 32.49 15.9324 32.49 14.1601C32.49 12.7763 32.3465 9.83863 33.4947 8.83716C35.3549 7.21661 36.4687 8.91606 37.6514 10.3667C38.1911 11.0343 38.5413 11.7202 38.9949 12.4546C39.2647 12.8916 39.9766 13.365 40.1948 12.6609C40.5623 11.5077 40.1776 10.0632 40.7517 8.99497C41.4579 7.69003 43.4731 8.03599 44.0013 9.34093C44.0989 9.57764 44.1276 9.97822 44.1563 10.2513C44.4663 13.0737 44.0874 15.9688 44.0415 18.8154ZM55.5183 53.9334H48.0432V44.4043H55.5183V53.9334ZM55.5183 39.3545H48.0432V29.8254H55.5183V39.3545ZM56.7183 21.9654C56.391 22.7181 55.4552 23.4646 54.6571 23.149C53.75 22.7909 53.2964 21.8137 52.952 20.9215C52.6247 20.0596 52.2343 19.1371 51.4879 18.5726C51.109 18.2813 50.7932 18.4391 50.5349 18.7425C49.5072 19.9261 51.1722 22.3539 49.4613 23.149C49.0594 23.3311 48.4795 23.3129 48.0489 23.2643C45.9648 23.0337 46.4011 20.8122 46.3897 19.1856C46.3782 17.7896 46.3782 16.4058 46.3323 15.0402C46.2921 13.7899 46.315 12.5881 46.3437 11.3924C46.3495 10.8826 46.3839 10.4577 46.4413 9.95395C46.5102 9.31665 46.4586 8.58224 47.0499 8.16345C47.6011 7.775 48.3762 7.87211 48.979 8.04206C49.7713 8.26663 49.7713 8.58831 50.0354 9.38341C50.2306 9.98429 50.2536 10.6823 50.265 11.3196C50.2765 11.6959 50.3397 12.2179 50.7818 12.2239C51.2353 12.2239 51.62 11.4106 51.8783 11.095C52.1252 10.7855 52.4065 10.5063 52.5558 10.136C53.0783 8.88572 54.7662 7.69003 55.9661 8.86751C57.0053 9.88111 56.2073 11.2953 55.5068 12.2361C54.8696 13.0979 53.75 14.0508 54.1576 15.2769C54.6514 16.7821 55.702 18.087 56.3049 19.5498C56.4943 19.9989 56.7699 20.618 56.8273 21.1946C56.8388 21.4617 56.8216 21.7287 56.7183 21.9654Z" fill="#78A3AD"/>
</svg>
